HIERARCHY
ROOT hip
{
  OFFSET 0 0 0
  CHANNELS 6 Xposition Yposition Zposition Zrotation Yrotation Xrotation
  JOINT abdomen
  {
    OFFSET 0 20.6881 -0.73152
    CHANNELS 3 Zrotation Xrotation Yrotation
    JOINT chest
    {
      OFFSET 0 11.7043 -0.48768
      CHANNELS 3 Zrotation Xrotation Yrotation
      JOINT neck
      {
        OFFSET 0 22.1894 -2.19456
        CHANNELS 3 Zrotation Xrotation Yrotation
        JOINT head
        {
          OFFSET -0.24384 7.07133 1.2192
          CHANNELS 3 Zrotation Xrotation Yrotation
          JOINT leftEye
          {
            OFFSET 4.14528 8.04674 8.04672
            CHANNELS 3 Zrotation Xrotation Yrotation
            End Site
            {
              OFFSET 1 0 0
            }
          }
          JOINT rightEye
          {
            OFFSET -3.6576 8.04674 8.04672
            CHANNELS 3 Zrotation Xrotation Yrotation
            End Site
            {
              OFFSET 1 0 0
            }
          }
        }
      }
      JOINT rCollar
      {
        OFFSET -2.68224 19.2634 -4.8768
        CHANNELS 3 Zrotation Xrotation Yrotation
        JOINT rShldr
        {
          OFFSET -8.77824 -1.95073 1.46304
          CHANNELS 3 Zrotation Xrotation Yrotation
          JOINT rForeArm
          {
            OFFSET -28.1742 -1.7115 0.48768
            CHANNELS 3 Zrotation Xrotation Yrotation
            JOINT rHand
            {
              OFFSET -22.5879 0.773209 7.07136
              CHANNELS 3 Zrotation Xrotation Yrotation
              JOINT rThumb1
              {
                OFFSET -1.2192 -0.487915 3.41376
                CHANNELS 3 Zrotation Xrotation Yrotation
                JOINT rThumb2
                {
                  OFFSET -3.37035 -0.52449 3.41376
                  CHANNELS 3 Zrotation Xrotation Yrotation
                  End Site
                  {
                    OFFSET -1.78271 -1.18214 1.43049
                  }
                }
              }
              JOINT rIndex1
              {
                OFFSET -7.75947 0.938293 5.60832
                CHANNELS 3 Zrotation Xrotation Yrotation
                JOINT rIndex2
                {
                  OFFSET -2.54057 -0.884171 1.56538
                  CHANNELS 3 Zrotation Xrotation Yrotation
                  End Site
                  {
                    OFFSET -1.62519 -0.234802 1.16502
                  }
                }
              }
              JOINT rMid1
              {
                OFFSET -8.24714 1.18213 3.41376
                CHANNELS 3 Zrotation Xrotation Yrotation
                JOINT rMid2
                {
                  OFFSET -3.10165 -0.590103 1.0647
                  CHANNELS 3 Zrotation Xrotation Yrotation
                  End Site
                  {
                    OFFSET -2.48547 -0.328903 0.83742
                  }
                }
              }
              JOINT rRing1
              {
                OFFSET -8.82822 0.546677 1.51678
                CHANNELS 3 Zrotation Xrotation Yrotation
                JOINT rRing2
                {
                  OFFSET -2.60934 -0.819778 -0.0198488
                  CHANNELS 3 Zrotation Xrotation Yrotation
                  End Site
                  {
                    OFFSET -2.33842 -0.294052 0.168128
                  }
                }
              }
              JOINT rPinky1
              {
                OFFSET -8.27202 -0.0477905 -0.4584
                CHANNELS 3 Zrotation Xrotation Yrotation
                JOINT rPinky2
                {
                  OFFSET -1.82734 -0.647385 -0.700984
                  CHANNELS 3 Zrotation Xrotation Yrotation
                  End Site
                  {
                    OFFSET -1.69225 -0.51767 -0.607171
                  }
                }
              }
            }
          }
        }
      }
      JOINT lCollar
      {
        OFFSET 2.68224 19.2634 -4.8768
        CHANNELS 3 Zrotation Xrotation Yrotation
        JOINT lShldr
        {
          OFFSET 8.77824 -1.95073 1.46304
          CHANNELS 3 Zrotation Xrotation Yrotation
          JOINT lForeArm
          {
            OFFSET 28.1742 -1.7115 0.48768
            CHANNELS 3 Zrotation Xrotation Yrotation
            JOINT lHand
            {
              OFFSET 22.5879 0.773209 7.07136
              CHANNELS 3 Zrotation Xrotation Yrotation
              JOINT lThumb1
              {
                OFFSET 1.2192 -0.487915 3.41376
                CHANNELS 3 Zrotation Xrotation Yrotation
                JOINT lThumb2
                {
                  OFFSET 3.37035 -0.52449 3.41376
                  CHANNELS 3 Zrotation Xrotation Yrotation
                  End Site
                  {
                    OFFSET 1.78271 -1.18214 1.43049
                  }
                }
              }
              JOINT lIndex1
              {
                OFFSET 7.75947 0.938293 5.60832
                CHANNELS 3 Zrotation Xrotation Yrotation
                JOINT lIndex2
                {
                  OFFSET 2.54057 -0.884171 1.56538
                  CHANNELS 3 Zrotation Xrotation Yrotation
                  End Site
                  {
                    OFFSET 1.62519 -0.234802 1.16502
                  }
                }
              }
              JOINT lMid1
              {
                OFFSET 8.24714 1.18213 3.41376
                CHANNELS 3 Zrotation Xrotation Yrotation
                JOINT lMid2
                {
                  OFFSET 3.10165 -0.590103 1.0647
                  CHANNELS 3 Zrotation Xrotation Yrotation
                  End Site
                  {
                    OFFSET 2.48547 -0.328903 0.83742
                  }
                }
              }
              JOINT lRing1
              {
                OFFSET 8.82822 0.546677 1.51678
                CHANNELS 3 Zrotation Xrotation Yrotation
                JOINT lRing2
                {
                  OFFSET 2.60934 -0.819778 -0.0198488
                  CHANNELS 3 Zrotation Xrotation Yrotation
                  End Site
                  {
                    OFFSET 2.33842 -0.294052 0.168128
                  }
                }
              }
              JOINT lPinky1
              {
                OFFSET 8.27202 -0.0477905 -0.4584
                CHANNELS 3 Zrotation Xrotation Yrotation
                JOINT lPinky2
                {
                  OFFSET 1.82734 -0.647385 -0.700984
                  CHANNELS 3 Zrotation Xrotation Yrotation
                  End Site
                  {
                    OFFSET 1.69225 -0.51767 -0.607171
                  }
                }
              }
            }
          }
        }
      }
    }
  }
  JOINT rButtock
  {
    OFFSET -8.77824 4.35084 1.2192
    CHANNELS 3 Zrotation Xrotation Yrotation
    JOINT rThigh
    {
      OFFSET 0 -1.70687 -2.19456
      CHANNELS 3 Zrotation Xrotation Yrotation
      JOINT rShin
      {
        OFFSET 0 -36.8199 0.73152
        CHANNELS 3 Zrotation Xrotation Yrotation
        JOINT rFoot
        {
          OFFSET 0.73152 -45.1104 -5.12064
          CHANNELS 3 Zrotation Xrotation Yrotation
          End Site
          {
            OFFSET -1.1221 -3.69964 12.103
          }
        }
      }
    }
  }
  JOINT lButtock
  {
    OFFSET 8.77824 4.35084 1.2192
    CHANNELS 3 Zrotation Xrotation Yrotation
    JOINT lThigh
    {
      OFFSET 0 -1.70687 -2.19456
      CHANNELS 3 Zrotation Xrotation Yrotation
      JOINT lShin
      {
        OFFSET 0 -36.8199 0.73152
        CHANNELS 3 Zrotation Xrotation Yrotation
        JOINT lFoot
        {
          OFFSET -0.73152 -45.1104 -5.12064
          CHANNELS 3 Zrotation Xrotation Yrotation
          End Site
          {
            OFFSET 1.1221 -3.69964 12.103
          }
        }
      }
    }
  }
}
MOTION
Frames:	5
Frame Time:	0.00833333
0.0 0.0 0.0 0.0 0.0 0.0 0.0 0.0 0.0 0.0 0.0 0.0 0.0 0.0 0.0 0.0 0.0 0.0 0.0 0.0 0.0 0.0 0.0 0.0 0.0 0.0 0.0 0.0 0.0 0.0 0.0 0.0 0.0 0.0 0.0 0.0 0.0 0.0 0.0 0.0 0.0 0.0 0.0 0.0 0.0 0.0 0.0 0.0 0.0 0.0 0.0 0.0 0.0 0.0 0.0 0.0 0.0 0.0 0.0 0.0 0.0 0.0 0.0 0.0 0.0 0.0 0.0 0.0 0.0 0.0 0.0 0.0 0.0 0.0 0.0 0.0 0.0 0.0 0.0 0.0 0.0 0.0 0.0 0.0 0.0 0.0 0.0 0.0 0.0 0.0 0.0 0.0 0.0 0.0 0.0 0.0 0.0 0.0 0.0 0.0 0.0 0.0 0.0 0.0 0.0 0.0 0.0 0.0 0.0 0.0 0.0 0.0 0.0 0.0 0.0 0.0 0.0 0.0 0.0 0.0 0.0 0.0 0.0 0.0 0.0 0.0 0.0 0.0 0.0 0.0 0.0 0.0
9.999999999999999e-05 62.185199999999995 0.059199999999999996 -2.554051 -88.625533 1.76537 -0.172593 3.364448 2.817029 9.5575 2.780781 -60.234571 -7.216857 -4.005357 -125.397321 27.647512 -26.685572 37.030748 53.626223 -3.289205 -6.502617 18.053055 -14.883977 -78.857809 -53.052553 -87.287714 -151.663133 -159.182133 27.550409 168.327356 -3.562003 74.216954 172.067137 -175.356828 51.816514 77.128 6.604053 -15.747749 43.443922 170.679653 10.100471 -89.737981 159.176746 32.358805 -123.377449 -17.50749 35.949208 -82.590854 -47.972836 -1.700677 -113.742946 138.222028 -55.489076 116.892388 92.42775 15.845425 -81.811995 5.281004 -30.757541 -9.379352 30.367012 11.403578 -66.587448 -11.088425 -31.06911 -13.133979 82.695305 -43.19793 -168.574963 169.960024 -40.552758 -171.082634 0.961909 51.521873 -168.922567 -175.624397 22.96018 -110.835045 -13.431301 -25.912338 -13.818745 -163.820976 -63.247589 -103.566981 151.514097 7.029365 -87.692551 82.504087 43.465088 -69.91934 -9.979511 -18.99395 -33.023966 94.577824 77.079228 -60.279414 -94.493275 -11.972359 79.333601 157.619776 -51.836248 -173.267209 46.960819 41.424144 99.055098 156.736199 44.89455 148.393474 17.626258 -47.789202 20.597804 -3.469693 51.815022 -5.012874 -0.91806 -7.410794 -2.48169 68.975174 -22.214904 -99.487239 -2.385045 -50.191681 -2.023921 2.679954 51.91977 -1.847148 5.504382 -1.970842 69.566158 -3.771439 -68.246411 171.983815
-0.15380000000000002 62.789300000000004 0.3415 0.685387 8.623077 1.989223 -11.433914 18.863801 104.111392 -9.630566 -6.287334 -104.442595 -3.681481 35.384903 -176.730014 -5.696722 48.578263 163.928963 10.463644 -0.584178 -6.373247 3.258937 -0.336166 -11.775573 -140.06031 38.542952 142.443851 -25.126649 -63.270411 14.947261 -105.656151 -75.642145 -42.848472 0.830103 10.526956 -3.871598 8.809478 -27.996985 -1.380275 -87.94478 28.676972 86.315949 -169.70579 -66.262764 150.403487 -41.571436 -83.671795 -111.520142 5.939237 -20.513126 3.199015 -179.042213 -16.639532 166.640515 -150.601472 11.106197 170.455238 -143.770407 -21.91917 179.646765 -9.330397 0.327481 4.698348 -33.000919 -61.832147 -39.651623 65.09171 -85.640216 85.516517 -92.559491 21.810147 54.463507 24.661075 44.466517 -103.666608 6.132486 -6.113382 -2.629276 173.523686 -9.279023 -99.034961 55.585692 -5.766394 -15.686154 18.507389 23.188483 13.379935 -106.365028 -38.246871 -42.349195 24.153909 43.49312 -9.872397 -5.337984 2.653999 -12.753619 11.964849 -43.719041 23.789315 -14.091573 -17.866361 -2.300568 -12.941411 62.6678 -27.464008 126.719085 -4.950397 113.90504 168.613465 72.598827 -0.669075 178.236121 6.72114 164.670184 -34.118797 -71.600804 -122.542064 -1.581631 57.805364 -81.392616 21.489098 3.30618 5.278931 -23.534593 -38.043915 -7.002744 -74.105891 71.010895 -68.537134 -82.000521 30.56715 -164.723176
-1.002 61.9425 0.9868999999999999 -2.350291 3.443596 3.591639 -6.882818 23.033241 51.033907 -5.664578 -15.477631 -57.16374 -13.477554 34.926044 -153.524921 15.548667 50.213675 145.884739 25.569073 7.158415 30.822877 -10.794382 6.023398 -58.224581 -120.687675 43.802456 120.517083 119.943172 -45.757929 145.907707 162.324717 17.403099 81.863356 179.44817 4.641224 144.909988 -172.378187 -9.072644 96.740544 163.506184 3.54694 128.0834 -143.357691 -48.783568 164.470528 -143.661587 -77.983736 143.902759 -70.456367 66.877463 72.919383 9.770319 -43.071324 -11.050071 -148.961782 -33.432761 -160.745581 -0.219644 -5.463662 -2.4215 -137.273518 9.946867 -159.34561 23.314052 -75.622341 12.543798 36.966929 74.001032 -36.429297 -94.107027 -7.609252 -129.371401 -1.28932 46.006349 -92.431406 8.303847 4.672667 0.609772 -18.478085 -14.998653 18.127431 154.94986 -27.421804 -96.018706 -0.066918 28.757885 -1.987294 34.288983 5.319241 -7.39957 153.924349 -63.442346 179.915257 160.059957 -40.621222 -174.351633 140.305103 -11.580643 -175.075842 124.760191 -32.157195 -172.996394 150.834844 -45.655661 146.558214 166.205716 -29.458167 132.901954 -57.116205 10.484239 -40.985315 85.839285 -33.47121 172.020002 71.63764 -51.362986 -177.345704 46.797201 30.61157 35.676805 154.50242 66.678045 10.867905 -161.874336 17.747636 108.43596 81.530607 -14.439847 -159.859312 67.812172 -68.053746 150.788053
-1.4666000000000001 62.9386 0.6822 -3.002259 -0.380122 5.855662 -3.182006 18.133204 -165.117282 1.27571 9.294796 166.824044 10.761634 18.941679 115.133253 -33.678915 21.182576 -109.331003 -5.617276 -0.696165 14.118579 -0.281328 0.095472 -37.490492 16.055392 -42.673478 -0.722286 -113.388828 -1.600667 169.089299 178.858831 -42.205328 -124.050295 -8.514285 33.443768 7.816851 -11.745883 -2.607707 0.107934 -63.52728 43.518467 66.428932 4.771541 -32.827459 -30.853012 -166.575379 -70.870886 109.235522 -122.464985 -69.802029 -168.201649 -156.897605 -0.411784 128.636918 29.29673 69.919892 -27.244 168.979862 52.961051 -169.443637 -117.508168 46.449873 -176.700204 -111.039671 -13.366623 -161.134866 3.820034 4.803739 -2.822934 103.500244 -24.620189 -104.10797 -40.391306 11.159078 157.834864 149.200095 41.303497 -117.563383 4.938677 30.600846 -6.848222 77.531813 -0.237291 -8.505302 -162.639674 -47.079306 -102.953112 169.649431 29.839788 -126.753399 -8.634858 19.580393 -1.109656 166.022146 -82.264615 163.816129 131.050912 0.703598 175.13567 24.010319 -41.074834 75.322125 94.324934 -70.172087 86.996768 152.793034 6.886942 135.079675 -148.772026 81.904068 -5.288202 158.307669 11.914092 128.092287 71.947682 -22.284555 -69.811229 -89.263603 22.431353 12.017476 38.648929 23.217123 33.44582 -78.355315 -37.729047 -12.078444 75.746627 57.050074 -4.16572 -159.371862 -14.783921 44.581431
